# xmcd
#
# Track frame offsets: 
#        150
#        19162
#        40825
#        67875
#        89750
#        131987
#        151612
#        173450
#        208962
#        226362
#
# Disc length: 3818 seconds
#
# Revision: 0
# Processed by: cddbd v1.5.2PL0 Copyright (c) Steve Scherf et al.
# Submitted via: ExactAudioCopy v0.99pb4
#
DISCID=800ee80a
DTITLE=上海民族精英樂團 - 懷舊武俠電影配樂精選
DYEAR=1992
DGENRE=Instrumental Rock
TTITLE0=小刀會序曲
TTITLE1=弓舞
TTITLE2='將令
TTITLE3=豌豆花開
TTITLE4=狼牙山五壯士
TTITLE5=姑蘇行
TTITLE6=大浪淘沙
TTITLE7=十面埋伏
TTITLE8=秦川抒懷
TTITLE9=月兒高
EXTD=
EXTT0=
EXTT1=
EXTT2=
EXTT3=
EXTT4=
EXTT5=
EXTT6=
EXTT7=
EXTT8=
EXTT9=
PLAYORDER=
